<svg width="64" height="64" viewBox="0 0 64 64" fill="none" xmlns="http://www.w3.org/2000/svg">
<path fill-rule="evenodd" clip-rule="evenodd" d="M49.0624 15.1213C47.8909 13.9498 45.9914 13.9498 44.8198 15.1213L32.0919 27.8492L19.364 15.1213C18.1924 13.9498 16.2929 13.9498 15.1213 15.1213C13.9497 16.2929 13.9497 18.1924 15.1213 19.364L27.8492 32.0919L15.1213 44.8198C13.9497 45.9914 13.9497 47.8909 15.1213 49.0625C16.2929 50.234 18.1924 50.234 19.364 49.0625L32.0919 36.3345L44.8198 49.0625C45.9914 50.234 47.8909 50.234 49.0624 49.0625C50.234 47.8909 50.234 45.9914 49.0624 44.8198L36.3345 32.0919L49.0624 19.364C50.234 18.1924 50.234 16.2929 49.0624 15.1213Z" fill="black"/>
</svg>
