<?xml version="1.0" encoding="UTF-8"?>
<svg id="Layer_1" data-name="Layer 1" xmlns="http://www.w3.org/2000/svg" viewBox="0 0 960 960">
  <defs>
    <style>
      .cls-1 {
        fill: #16a74f;
        stroke-width: 0px;
      }
    </style>
  </defs>
  <g>
    <g>
      <path class="cls-1" d="M304.07,579.16c-2.13,0-4.21-.05-6.23-.14-30.26-1.36-54.33-11.86-64.38-28.08-9.47-15.27-20.23-37.14-10.92-57.9-8.95-4.36-18.97-11.47-25.96-22.93-8.39-13.77-16.76-24.53-23.49-33.17-4.71-6.06-8.44-10.84-10.75-14.87-4.84-8.44-2.56-13.51.2-16.26,7.06-7.06,26.87-1.94,30.77-.85,11.43,3.22,28.41,10.4,44.38,26.37,2.65,2.64,5.17,5.15,7.62,7.57l.64.64c7.27,7.22,13.73,13.63,19.04,19.36,8.32-2.68,17.41-3.92,26.56-3.6,11.21.4,22.3,3.08,32.06,7.77,12.54,6.12,19.61,17.2,23.83,25.02l.13.24c3.35,6.17,7.07,12.46,12.3,15.68l.24.16c1.94,1.31,4.21,2.47,6.6,3.7,4.89,2.51,9.95,5.11,13.72,9.61,8.74,10.1,5.13,24.49-2.33,34.3-15.32,20.35-48.11,27.38-74.04,27.38ZM175.09,416.14c2.05,3.22,5.71,7.91,9.05,12.2,6.58,8.45,15.59,20.03,24.4,34.48,6.95,11.4,18.17,17.3,26.35,20.25l8.66,3.12-5.32,7.51c-5.9,8.33-10.43,21.53,7.13,49.86,7.5,12.11,27.86,20.33,53.11,21.47,29.7,1.33,57.86-7.58,68.47-21.68l.03-.04c3.27-4.29,6.73-12.27,2.88-16.69l-.1-.12c-1.95-2.35-5.57-4.21-9.4-6.17-2.61-1.34-5.31-2.73-7.9-4.46-8.08-5.02-13.08-13.36-17.12-20.79l-.15-.27c-5.33-9.87-10.77-15.77-17.64-19.12-8-3.84-17.16-6.05-26.45-6.38-8.96-.32-17.76,1.16-25.49,4.28l-4.59,1.85-3.28-3.72c-5.51-6.25-12.97-13.66-21.61-22.23l-.64-.63c-2.45-2.43-4.98-4.95-7.59-7.54l-.07-.07c-20.31-20.31-43.39-24.97-52.7-25.09Z"/>
      <path class="cls-1" d="M260.91,475.46l-3.28-3.72c-5.56-6.31-13.1-13.79-21.83-22.46l-1.73-1.72-.54-1.95c-.07-.24-.14-.49-.21-.74-3.4-13.47-7.55-24.47-10.89-33.31-2.36-6.25-4.22-11.18-5.11-15.17-1.97-8.79,1.53-12.7,4.81-14.43,7.9-4.17,22.36,4.47,26.6,7.21,8.72,5.64,21.05,16.04,30.25,33.5,1.6,3.03,3.16,5.96,4.66,8.78,5.86,11.02,10.93,20.53,14.08,28.21l4.12,10.04-10.85-.38c-8.96-.32-17.76,1.17-25.49,4.28l-4.6,1.85ZM246.6,440.27c6.99,6.93,13.2,13.12,18.33,18.66,4.96-1.6,10.2-2.69,15.56-3.24-2.6-5.24-5.76-11.19-9.21-17.66-1.51-2.84-3.08-5.78-4.69-8.83-10.71-20.31-26.74-30.01-34.87-33.17.95,3.01,2.43,6.94,3.81,10.58,3.19,8.45,7.53,19.93,11.07,33.66Z"/>
    </g>
    <g>
      <path class="cls-1" d="M402.3,541.5v-70.38h18.8v70.38h-18.8ZM454.64,541.5v-18.56c0-3.06-.47-5.64-1.41-7.75-.94-2.11-2.6-3.69-4.98-4.74-2.38-1.05-5.73-1.58-10.07-1.58-2.46,0-4.85.29-7.17.87-2.33.58-4.41,1.28-6.27,2.09-1.85.82-3.33,1.63-4.43,2.45l-.16-4.9c.21-1.02.93-2.57,2.15-4.64,1.23-2.07,3.02-4.25,5.37-6.53,2.35-2.28,5.31-4.22,8.89-5.81,3.58-1.6,7.82-2.4,12.73-2.4,3.08,0,6.06.37,8.93,1.12,2.87.75,5.45,1.99,7.72,3.72,2.27,1.73,4.09,4.06,5.45,6.99,1.36,2.92,2.04,6.56,2.04,10.92v28.76h-18.8Z"/>
      <path class="cls-1" d="M516.93,543.03c-8.3,0-15.21-.88-20.72-2.65-5.51-1.77-9.64-4.59-12.38-8.47-2.74-3.88-4.11-8.98-4.11-15.3s1.37-11.44,4.11-15.35c2.74-3.91,6.87-6.77,12.38-8.57,5.51-1.8,12.42-2.7,20.72-2.7s15.11.9,20.57,2.7c5.46,1.8,9.54,4.66,12.26,8.57,2.71,3.91,4.07,9.03,4.07,15.35s-1.36,11.42-4.07,15.3c-2.72,3.88-6.8,6.7-12.26,8.47-5.46,1.77-12.31,2.65-20.57,2.65ZM516.93,528.24c3.87,0,7.1-.42,9.72-1.28,2.61-.85,4.6-2.14,5.96-3.88,1.36-1.73,2.04-3.89,2.04-6.48s-.67-4.76-2-6.53c-1.33-1.77-3.3-3.09-5.92-3.98-2.61-.88-5.88-1.33-9.79-1.33s-7.14.44-9.83,1.33c-2.69.88-4.73,2.19-6.11,3.93-1.38,1.73,11.92,3.93,11.92,6.58s-13.32,4.74-11.96,6.48c1.36,1.73,3.38,3.03,6.07,3.88,2.69.85,5.99,1.28,9.91,1.28Z"/>
      <path class="cls-1" d="M560.1,491.52h17.71l1.1,19.38v51h-18.8v-70.38ZM607.89,543.03c-4.7,0-8.93-.63-12.69-1.89-3.76-1.26-6.97-3.06-9.64-5.41-2.66-2.35-4.7-5.15-6.11-8.42-1.41-3.26-2.12-6.87-2.12-10.81s.71-7.53,2.12-10.76c1.41-3.23,3.45-6.02,6.11-8.36,2.66-2.35,5.88-4.15,9.64-5.41,3.76-1.26,7.99-1.89,12.69-1.89,5.64,0,10.67,1.04,15.08,3.11,4.41,2.07,7.87,5.08,10.38,9.03,2.51,3.95,3.76,8.71,3.76,14.28,0,5.85-1.25,10.75-3.76,14.69-2.51,3.94-5.97,6.9-10.38,8.87-4.42,1.97-9.44,2.96-15.08,2.96ZM600.84,527.42c3.55,0,6.58-.41,9.09-1.22,2.51-.82,4.41-2.02,5.72-3.62,1.3-1.6,1.96-3.62,1.96-6.07,0-3.6-1.46-6.32-4.39-8.16-2.93-1.84-7.05-2.75-12.38-2.75-3.97,0-7.61.31-10.93.92-3.32.61-5.98,1.72-7.99,3.32-2.01,1.6,12.44,3.83,12.44,6.68s-14.45,5.08-12.44,6.68c2.01,1.6,4.67,2.7,7.99,3.31,3.32.61,6.96.92,10.93.92Z"/>
      <path class="cls-1" d="M643.38,491.52h17.71l1.1,19.38v51h-18.8v-70.38ZM691.18,543.03c-4.7,0-8.93-.63-12.69-1.89-3.76-1.26-6.97-3.06-9.64-5.41-2.66-2.35-4.7-5.15-6.11-8.42-1.41-3.26-2.12-6.87-2.12-10.81s.71-7.53,2.12-10.76c1.41-3.23,3.45-6.02,6.11-8.36,2.66-2.35,5.88-4.15,9.64-5.41,3.76-1.26,7.99-1.89,12.69-1.89,5.64,0,10.67,1.04,15.08,3.11,4.41,2.07,7.87,5.08,10.38,9.03,2.51,3.95,3.76,8.71,3.76,14.28,0,5.85-1.25,10.75-3.76,14.69-2.51,3.94-5.97,6.9-10.38,8.87-4.42,1.97-9.44,2.96-15.08,2.96ZM684.13,527.42c3.55,0,6.58-.41,9.09-1.22,2.51-.82,4.41-2.02,5.72-3.62,1.3-1.6,1.96-3.62,1.96-6.07,0-3.6-1.46-6.32-4.39-8.16-2.93-1.84-7.05-2.75-12.38-2.75-3.97,0-7.61.31-10.93.92-3.32.61-5.98,1.72-7.99,3.32-2.01,1.6,10.98,3.83,10.98,6.68s-13,5.08-10.98,6.68c2.01,1.6,4.67,2.7,7.99,3.31,3.32.61,6.96.92,10.93.92Z"/>
      <path class="cls-1" d="M763.58,543.03c-8.3,0-15.21-.88-20.72-2.65-5.51-1.77-9.64-4.59-12.38-8.47-2.74-3.88-4.11-8.98-4.11-15.3s1.37-11.44,4.11-15.35c2.74-3.91,6.87-6.77,12.38-8.57,5.51-1.8,12.42-2.7,20.72-2.7s15.11.9,20.57,2.7c5.46,1.8,9.54,4.66,12.26,8.57,2.71,3.91,4.07,9.03,4.07,15.35s-1.36,11.42-4.07,15.3c-2.72,3.88-6.8,6.7-12.26,8.47-5.46,1.77-12.31,2.65-20.57,2.65ZM763.58,528.24c3.87,0,7.1-.42,9.72-1.28,2.61-.85,4.6-2.14,5.96-3.88,1.36-1.73,2.04-3.89,2.04-6.48s-.67-4.76-2-6.53c-1.33-1.77-3.3-3.09-5.92-3.98-2.61-.88-5.88-1.33-9.79-1.33s-7.14.44-9.83,1.33c-2.69.88-4.73,2.19-6.11,3.93-1.38,1.73,11.92,3.93,11.92,6.58s-13.32,4.74-11.96,6.48c1.36,1.73,3.38,3.03,6.07,3.88,2.69.85,5.99,1.28,9.91,1.28Z"/>
    </g>
    <path class="cls-1" d="M480.88,478.03c3.55,0,6.58-.41,9.09-1.22,2.51-.82,4.41-2.02,5.72-3.62,1.3-1.6,1.96-3.62,1.96-6.07,0-3.6-1.46-6.32-4.39-8.16-2.93-1.84-7.05-2.75-12.38-2.75-3.97,0-7.61.31-10.93.92-3.32.61-5.98,1.72-7.99,3.32-2.01,1.6,12.44,3.83,12.44,6.68s-14.45,5.08-12.44,6.68c2.01,1.6,4.67,2.7,7.99,3.31,3.32.61,6.96.92,10.93.92Z"/>
    <path class="cls-1" d="M561.27,478.03c3.55,0,6.58-.41,9.09-1.22,2.51-.82,4.41-2.02,5.72-3.62,1.3-1.6,1.96-3.62,1.96-6.07,0-3.6-1.46-6.32-4.39-8.16-2.93-1.84-7.05-2.75-12.38-2.75-3.97,0-7.61.31-10.93.92-3.32.61-5.98,1.72-7.99,3.32-2.01,1.6,12.44,3.83,12.44,6.68s-14.45,5.08-12.44,6.68c2.01,1.6,4.67,2.7,7.99,3.31,3.32.61,6.96.92,10.93.92Z"/>
    <path class="cls-1" d="M638.29,478.03c3.55,0,6.58-.41,9.09-1.22,2.51-.82,4.41-2.02,5.72-3.62,1.3-1.6,1.96-3.62,1.96-6.07,0-3.6-1.46-6.32-4.39-8.16-2.93-1.84-7.05-2.75-12.38-2.75-3.97,0-7.61.31-10.93.92-3.32.61-5.98,1.72-7.99,3.32-2.01,1.6,12.44,3.83,12.44,6.68s-14.45,5.08-12.44,6.68c2.01,1.6,4.67,2.7,7.99,3.31,3.32.61,6.96.92,10.93.92Z"/>
  </g>
  <path class="cls-1" d="M717.23,478.03c3.55,0,6.58-.41,9.09-1.22,2.51-.82,4.41-2.02,5.72-3.62,1.3-1.6,1.96-3.62,1.96-6.07,0-3.6-1.46-6.32-4.39-8.16-2.93-1.84-7.05-2.75-12.38-2.75-3.97,0-7.61.31-10.93.92-3.32.61-5.98,1.72-7.99,3.32-2.01,1.6,12.44,3.83,12.44,6.68s-14.45,5.08-12.44,6.68c2.01,1.6,4.67,2.7,7.99,3.31,3.32.61,6.96.92,10.93.92Z"/>
</svg>