<?xml version="1.0" encoding="UTF-8"?>
<svg id="Layer_1" data-name="Layer 1" xmlns="http://www.w3.org/2000/svg" viewBox="0 0 960 960">
  <defs>
    <style>
      .cls-1 {
        fill: #16a74f;
        stroke-width: 0px;
      }
    </style>
  </defs>
  <path class="cls-1" d="M546.07,687.75c-4.46,0-8.82-.1-13.05-.29-63.4-2.85-113.82-24.84-134.89-58.83-19.83-31.99-42.38-77.8-22.88-121.3-18.74-9.13-39.74-24.02-54.38-48.04-17.58-28.84-35.12-51.38-49.22-69.5-9.88-12.69-17.68-22.72-22.52-31.16-10.14-17.69-5.36-28.3.43-34.07,14.78-14.79,56.29-4.07,64.46-1.77,23.95,6.74,59.52,21.79,92.99,55.26,5.55,5.52,10.84,10.79,15.97,15.87l1.35,1.34c15.24,15.13,28.76,28.56,39.88,40.56,17.44-5.62,36.48-8.21,55.65-7.54,23.49.83,46.71,6.46,67.17,16.28,26.28,12.83,41.08,36.03,49.93,52.42l.28.5c7.03,12.92,14.8,26.1,25.77,32.84l.51.33c4.07,2.74,8.81,5.17,13.83,7.75,10.24,5.26,20.84,10.7,28.74,20.14,18.3,21.15,10.75,51.3-4.89,71.85-32.1,42.64-100.79,57.36-155.13,57.36ZM275.85,346.21c4.3,6.74,11.95,16.57,18.95,25.57,13.78,17.71,32.66,41.97,51.11,72.24,14.56,23.88,38.06,36.25,55.21,42.42l18.15,6.53-11.15,15.74c-12.37,17.46-21.85,45.11,14.94,104.46,15.72,25.37,58.36,42.6,111.28,44.98,62.22,2.78,121.23-15.88,143.44-45.43l.06-.08c6.85-8.98,14.1-25.71,6.03-34.97l-.22-.26c-4.09-4.92-11.67-8.81-19.7-12.93-5.47-2.81-11.12-5.71-16.55-9.34-16.94-10.52-27.4-27.99-35.87-43.57l-.32-.56c-11.16-20.68-22.56-33.03-36.96-40.06-16.75-8.04-35.95-12.68-55.42-13.37-18.77-.66-37.22,2.43-53.4,8.96l-9.62,3.88-6.86-7.79c-11.55-13.1-27.17-28.62-45.27-46.58l-1.33-1.32c-5.13-5.08-10.44-10.36-15.91-15.8l-.15-.15c-42.56-42.56-90.9-52.31-110.42-52.57Z"/>
  <path class="cls-1" d="M455.64,470.49l-6.86-7.79c-11.64-13.22-27.44-28.9-45.75-47.06l-3.63-3.6-1.13-4.09c-.15-.51-.3-1.02-.43-1.54-7.12-28.22-15.82-51.27-22.82-69.79-4.94-13.09-8.84-23.42-10.71-31.78-4.13-18.43,3.2-26.61,10.07-30.23,16.55-8.73,46.84,9.36,55.73,15.11,18.27,11.82,44.1,33.6,63.39,70.19,3.35,6.35,6.61,12.49,9.76,18.4,12.29,23.08,22.9,43.02,29.51,59.11l8.64,21.03-22.72-.8c-18.76-.66-37.22,2.44-53.41,8.97l-9.63,3.88ZM425.66,396.76c14.64,14.53,27.66,27.48,38.41,39.1,10.4-3.35,21.37-5.63,32.6-6.78-5.45-10.98-12.08-23.43-19.3-37.01-3.16-5.94-6.45-12.12-9.82-18.5-22.44-42.56-56.02-62.87-73.06-69.49,1.99,6.3,5.1,14.53,7.98,22.16,6.68,17.7,15.77,41.76,23.19,70.52Z"/>
</svg>